<?xml version="1.0" encoding="UTF-8"?><svg id="Layer_1" xmlns="http://www.w3.org/2000/svg" viewBox="0 0 512 448"><defs><style>.cls-1{fill:#f7f7f7;}</style></defs><path class="cls-1" d="M512,384c0,35.3-28.7,64-64,64H64C28.7,448,0,419.3,0,384V64C0,28.7,28.7,0,64,0H192c20.1,0,39.1,9.5,51.2,25.6l19.2,25.6c6,8.1,15.5,12.8,25.6,12.8h160c35.3,0,64,28.7,64,64V384Zm-232-216c0-13.3-10.7-24-24-24s-24,10.7-24,24v102.1l-31-31c-9.4-9.4-24.6-9.4-33.9,0s-9.4,24.6,0,33.9l72,72c9.4,9.4,24.6,9.4,33.9,0l72-72c9.4-9.4,9.4-24.6,0-33.9s-24.6-9.4-33.9,0l-31,31-.1-102.1Z"/></svg>