<?xml version="1.0" encoding="UTF-8"?><svg id="Layer_1" xmlns="http://www.w3.org/2000/svg" viewBox="0 0 576 320"><defs><style>.cls-1{fill:#f7f7f7;}</style></defs><path class="cls-1" d="M0,160C0,71.6,71.6,0,160,0h64c17.7,0,32,14.3,32,32s-14.3,32-32,32h-64c-53,0-96,43-96,96s43,96,96,96h64c17.7,0,32,14.3,32,32s-14.3,32-32,32h-64C71.6,320,0,248.4,0,160Zm576,0c0,88.4-71.6,160-160,160h-64c-17.7,0-32-14.3-32-32s14.3-32,32-32h64c53,0,96-43,96-96s-43-96-96-96h-64c-17.7,0-32-14.3-32-32S334.3,0,352,0h64c88.4,0,160,71.6,160,160Zm-384-32h192c17.7,0,32,14.3,32,32s-14.3,32-32,32H192c-17.7,0-32-14.3-32-32s14.3-32,32-32Z"/></svg>