<?xml version="1.0" encoding="UTF-8"?>
<svg id="Layer_2" data-name="Layer 2" xmlns="http://www.w3.org/2000/svg" xmlns:xlink="http://www.w3.org/1999/xlink" viewBox="0 0 95 57.18">
  <defs>
    <style>
      .cls-1 {
        fill: #fff;
      }

      .cls-2 {
        fill: #e87e24;
      }

      .cls-3 {
        fill: url(#linear-gradient);
      }

      .cls-4 {
        fill: #265888;
      }
    </style>
    <linearGradient id="linear-gradient" x1="12.36" y1="20.7" x2="65.23" y2="42.3" gradientUnits="userSpaceOnUse">
      <stop offset="0" stop-color="#e2eaef"/>
      <stop offset=".3" stop-color="#e6ebee"/>
      <stop offset="1" stop-color="#ebeded"/>
    </linearGradient>
  </defs>
  <g id="Layer_1-2" data-name="Layer 1">
    <path class="cls-3" d="M95,38.12c0,10.53-8.53,19.06-19.06,19.06H19.06C8.53,57.18,0,48.65,0,38.12c0-9.25,6.59-16.95,15.32-18.69C19.14,8.13,29.82,0,42.4,0s23.69,8.46,27.31,20.11c1.95-.68,4.05-1.05,6.23-1.05,10.53,0,19.06,8.53,19.06,19.06Z"/>
    <g id="g1317">
      <g id="g1307">
        <path id="path1305" class="cls-1" d="M34.84,33.66c.22-3.94,2.15-7.42,5.06-9.88,2.86-2.42,6.7-3.9,10.9-3.9s8.04,1.48,10.89,3.9c2.91,2.46,4.84,5.94,5.06,9.88,.22,4.05-1.41,7.82-4.26,10.6-2.91,2.84-7.06,4.62-11.7,4.62s-8.79-1.78-11.7-4.62c-2.86-2.79-4.48-6.55-4.26-10.6h0Z"/>
      </g>
      <g id="g1311">
        <path id="path1309" class="cls-4" d="M43.01,34.03c.11-1.93,1.05-3.62,2.47-4.82,1.39-1.18,3.27-1.9,5.32-1.9s3.92,.72,5.32,1.9c1.42,1.2,2.36,2.9,2.47,4.82,.11,1.98-.69,3.82-2.08,5.18-1.42,1.39-3.45,2.26-5.71,2.26s-4.29-.87-5.71-2.26c-1.4-1.36-2.19-3.2-2.08-5.18h0Z"/>
      </g>
      <g id="g1315">
        <path id="path1313" class="cls-2" d="M30.6,37.92c.01,.75,.25,2.22,.61,3.36,.76,2.42,2.04,4.66,3.83,6.63,1.83,2.03,4.09,3.66,6.7,4.81,2.74,1.21,5.71,1.83,8.8,1.83,3.08,0,6.05-.64,8.8-1.86,2.61-1.17,4.87-2.8,6.7-4.83,1.79-1.98,3.07-4.22,3.83-6.64,.38-1.22,.62-2.46,.72-3.71,.09-1.23,.05-2.46-.12-3.68-.34-2.39-1.17-4.64-2.44-6.68-1.17-1.88-2.67-3.53-4.46-4.91h0s-18.03-13.85-18.03-13.85c-.02-.01-.03-.03-.05-.04-1.18-.91-3.17-.91-4.47,0-1.32,.92-1.47,2.44-.3,3.4h0s7.52,6.12,7.52,6.12l-22.92,.02h-.03c-1.89,0-3.72,1.25-4.08,2.82-.37,1.6,.92,2.93,2.89,2.94h0s11.62-.02,11.62-.02l-20.73,15.91s-.05,.04-.08,.06c-1.96,1.5-2.59,3.99-1.36,5.56,1.25,1.6,3.91,1.61,5.88,0l11.32-9.26s-.16,1.25-.15,2h0Zm29.08,4.19c-2.33,2.38-5.6,3.72-9.13,3.73-3.54,0-6.8-1.33-9.13-3.7-1.14-1.16-1.98-2.49-2.49-3.9-.51-1.39-.7-2.87-.57-4.36,.12-1.46,.56-2.85,1.25-4.1,.68-1.24,1.62-2.35,2.77-3.3,2.27-1.85,5.15-2.85,8.17-2.85,3.02,0,5.9,.99,8.17,2.83,1.15,.94,2.09,2.05,2.77,3.29,.7,1.26,1.13,2.64,1.25,4.1,.13,1.49-.07,2.96-.57,4.36-.52,1.42-1.35,2.75-2.49,3.91h0Z"/>
      </g>
    </g>
  </g>
</svg>